<svg width="793" height="552" viewBox="0 0 793 552" fill="none" xmlns="http://www.w3.org/2000/svg">
<g id="undraw_secure_login_pdn4 1">
<g id="laptopgroup">
<path id="Vector" d="M774.209 476.963H213.791C208.807 476.963 204.028 474.983 200.504 471.459C196.98 467.935 195 463.156 195 458.172C398.151 434.562 597.485 434.562 793 458.172C793 463.156 791.02 467.935 787.496 471.459C783.972 474.983 779.193 476.963 774.209 476.963Z" fill="#323A42"/>
<path id="Vector_2" d="M793 459.277L195 458.172L264.306 341.556L264.638 341.004V83.9963C264.637 80.8768 265.252 77.7878 266.445 74.9057C267.639 72.0236 269.389 69.4048 271.595 67.199C273.8 64.9932 276.419 63.2435 279.301 62.0498C282.183 60.8561 285.272 60.2419 288.392 60.2421H696.292C699.412 60.2419 702.501 60.8561 705.383 62.0498C708.265 63.2435 710.883 64.9932 713.089 67.199C715.295 69.4048 717.045 72.0236 718.239 74.9057C719.432 77.7878 720.046 80.8768 720.046 83.9963V342.772L793 459.277Z" fill="#8FA5BB"/>
<path id="Vector_3" d="M287.85 76.8225C285.799 76.8249 283.832 77.6408 282.382 79.0914C280.931 80.5419 280.115 82.5087 280.113 84.5601V318.896C280.115 320.948 280.931 322.915 282.382 324.365C283.832 325.816 285.799 326.632 287.85 326.634H700.15C702.201 326.632 704.168 325.816 705.618 324.365C707.069 322.914 707.885 320.948 707.887 318.896V84.5601C707.885 82.5087 707.069 80.542 705.618 79.0915C704.168 77.6409 702.201 76.8249 700.15 76.8225H287.85Z" fill="url(#paint0_linear)"/>
<path id="Vector_4" d="M289.578 357.584C288.944 357.585 288.324 357.767 287.79 358.109C287.256 358.451 286.831 358.939 286.565 359.514L265.21 405.939C264.977 406.445 264.876 407 264.914 407.555C264.953 408.11 265.13 408.646 265.43 409.114C265.73 409.582 266.143 409.968 266.631 410.235C267.119 410.501 267.666 410.641 268.222 410.641H717.314C717.879 410.641 718.435 410.497 718.929 410.222C719.423 409.946 719.838 409.549 720.135 409.069C720.432 408.588 720.601 408.039 720.626 407.474C720.652 406.909 720.532 406.348 720.279 405.842L697.067 359.417C696.793 358.865 696.37 358.401 695.846 358.077C695.322 357.753 694.718 357.582 694.102 357.584H289.578Z" fill="#5B6978"/>
<path id="Vector_5" d="M492.342 72.9538C495.089 72.9538 497.316 70.7268 497.316 67.9797C497.316 65.2325 495.089 63.0056 492.342 63.0056C489.595 63.0056 487.368 65.2325 487.368 67.9797C487.368 70.7268 489.595 72.9538 492.342 72.9538Z" fill="#323A42"/>
<!-- <path id="Vector_6" d="M448.2 419.484C447.471 419.485 446.763 419.726 446.184 420.169C445.605 420.613 445.189 421.234 444.998 421.938L439.641 441.834C439.509 442.326 439.491 442.841 439.59 443.341C439.689 443.84 439.901 444.31 440.211 444.714C440.521 445.118 440.919 445.445 441.375 445.671C441.832 445.896 442.334 446.013 442.843 446.013H544.717C545.246 446.013 545.767 445.887 546.237 445.644C546.706 445.402 547.112 445.051 547.418 444.62C547.725 444.189 547.924 443.692 547.999 443.168C548.074 442.645 548.023 442.112 547.85 441.612L540.963 421.715C540.737 421.064 540.314 420.499 539.752 420.099C539.191 419.7 538.519 419.485 537.829 419.484H448.2Z" fill="#5B6978"/> -->
<path id="Vector_7" d="M720.046 337.135V341.556H264.306L264.649 341.004V337.135H720.046Z" fill="#323A42"/>
</g>
</g>
<defs>
<linearGradient id="paint0_linear" x1="494" y1="76.8225" x2="494" y2="326.634" gradientUnits="userSpaceOnUse">
<stop stop-color="#FFF7D2"/>
<stop offset="1" stop-color="#E6E6E6"/>
</linearGradient>
</defs>
</svg>
