<svg width="80" height="87" viewBox="0 0 80 87" fill="none" xmlns="http://www.w3.org/2000/svg">
<g id="undraw_secure_login_pdn4 1">
<g id="lock">
<path id="Vector" d="M40.4366 82.8732C62.2169 82.8732 79.8732 65.2169 79.8732 43.4366C79.8732 21.6564 62.2169 4 40.4366 4C18.6564 4 1 21.6564 1 43.4366C1 65.2169 18.6564 82.8732 40.4366 82.8732Z" fill="#FAEDB1"/>
<path id="Vector_2" d="M56.7747 60.6197H24.0986C23.5011 60.6191 22.9283 60.3815 22.5058 59.959C22.0833 59.5365 21.8457 58.9636 21.8451 58.3661V38.6478C21.8457 38.0503 22.0834 37.4775 22.5058 37.055C22.9283 36.6326 23.5011 36.3949 24.0986 36.3943H56.7747C57.3721 36.3949 57.945 36.6326 58.3675 37.055C58.7899 37.4775 59.0276 38.0503 59.0282 38.6478V58.3661C59.0276 58.9636 58.79 59.5365 58.3675 59.959C57.945 60.3815 57.3722 60.6191 56.7747 60.6197ZM24.0986 38.6478V58.3661H56.7763L56.7747 38.6478L24.0986 38.6478Z" fill="white"/>
<path id="Vector_3" d="M50.5775 38.6479H30.2958V29.6338C30.2958 23.1049 34.5607 18.3662 40.4366 18.3662C46.3125 18.3662 50.5775 23.1049 50.5775 29.6338L50.5775 38.6479ZM32.5493 36.3944H48.324V29.6338C48.324 24.3265 45.0807 20.6197 40.4367 20.6197C35.7926 20.6197 32.5493 24.3266 32.5493 29.6338L32.5493 36.3944Z" fill="white"/>
<path id="Vector_4" d="M40.4366 50.1972C41.6812 50.1972 42.6901 49.1883 42.6901 47.9437C42.6901 46.6991 41.6812 45.6902 40.4366 45.6902C39.192 45.6902 38.1831 46.6991 38.1831 47.9437C38.1831 49.1883 39.192 50.1972 40.4366 50.1972Z" fill="white"/>
</g>
</g>
</svg>
